<?xml version="1.0" standalone="no"?>
<!DOCTYPE svg PUBLIC "-//W3C//DTD SVG 20010904//EN"
 "http://www.w3.org/TR/2001/REC-SVG-20010904/DTD/svg10.dtd">
<svg version="1.0" xmlns="http://www.w3.org/2000/svg"
 width="300.000000pt" height="300.000000pt" viewBox="0 0 300.000000 300.000000"
 preserveAspectRatio="xMidYMid meet">

<g transform="translate(0.000000,300.000000) scale(0.100000,-0.100000)"
fill="#ffffff" stroke="none">
<path d="M1440 1883 c-30 -53 -59 -104 -63 -113 -8 -15 32 -94 110 -219 17
-26 15 -28 118 155 l28 51 -64 112 c-35 61 -66 111 -69 111 -3 0 -30 -44 -60
-97z"/>
<path d="M1241 1539 c-35 -60 -61 -112 -58 -115 2 -3 61 -3 130 -2 l126 3 -60
105 c-33 58 -64 108 -68 112 -4 5 -35 -42 -70 -103z"/>
<path d="M1631 1541 c-33 -59 -61 -111 -61 -115 0 -3 56 -6 125 -6 69 0 125 3
125 7 0 7 -120 223 -125 223 -1 0 -30 -49 -64 -109z"/>
<path d="M1943 1215 c-57 -25 -81 -75 -63 -130 25 -77 112 -100 172 -46 29 26
33 35 33 81 0 45 -4 55 -29 75 -35 28 -76 35 -113 20z m85 -41 c33 -23 31 -96
-3 -118 -54 -35 -115 -4 -115 59 0 64 65 97 118 59z"/>
<path d="M401 1138 c-18 -120 -18 -123 -1 -123 10 0 17 16 23 55 11 79 11 79
42 32 15 -23 30 -42 34 -42 3 0 17 18 31 39 13 22 27 38 31 36 3 -3 9 -32 13
-65 5 -43 11 -60 21 -60 9 0 15 9 15 22 0 37 -24 188 -30 188 -3 0 -21 -25
-40 -55 -19 -30 -38 -55 -41 -55 -3 0 -23 25 -43 55 -20 30 -38 55 -40 55 -2
0 -9 -37 -15 -82z"/>
<path d="M722 1195 c-38 -32 -48 -72 -29 -116 19 -46 39 -61 90 -66 36 -4 48
-1 75 22 53 45 52 133 -2 170 -34 24 -100 19 -134 -10z m120 -22 c22 -19 25
-95 5 -112 -8 -6 -28 -14 -46 -17 -63 -13 -105 67 -65 124 19 27 78 30 106 5z"/>
<path d="M1017 1209 c-24 -14 -47 -62 -47 -100 0 -47 56 -99 107 -99 40 1 73
18 73 40 0 8 -6 10 -17 5 -56 -23 -96 -17 -114 17 -17 31 -13 77 8 100 15 17
26 19 71 15 53 -6 67 4 33 23 -25 13 -91 13 -114 -1z"/>
<path d="M1237 1213 c-9 -8 -9 -150 -1 -180 12 -43 34 -27 34 24 l0 48 43 -48
c38 -43 67 -60 67 -39 0 5 -16 27 -35 49 -19 23 -35 45 -35 51 0 5 16 30 35
56 30 39 33 46 17 46 -10 0 -33 -20 -53 -46 l-34 -46 -3 46 c-3 43 -17 58 -35
39z"/>
<path d="M1460 1115 l0 -105 53 0 c64 0 97 20 97 59 0 15 -5 32 -11 38 -7 7
-8 20 -3 34 18 55 -8 79 -83 79 l-53 0 0 -105z m108 48 c3 -17 -3 -24 -22 -29
-37 -9 -53 1 -53 31 0 24 2 26 36 23 28 -2 37 -8 39 -25z m-4 -66 c30 -22 16
-52 -25 -55 -31 -3 -37 0 -41 20 -2 13 -3 29 0 36 5 16 44 15 66 -1z"/>
<path d="M1698 1202 c-3 -10 -5 -56 -4 -102 l1 -85 59 0 c39 0 61 4 64 13 2 8
-10 12 -42 12 l-46 0 0 90 c0 70 -3 90 -14 90 -7 0 -16 -8 -18 -18z"/>
<path d="M2195 1197 c-20 -17 -28 -35 -32 -70 -5 -43 -3 -49 31 -83 34 -34 40
-36 81 -31 61 6 75 20 75 73 l0 44 -40 0 c-29 0 -40 -4 -40 -15 0 -9 9 -15 25
-15 20 0 25 -5 25 -24 0 -38 -56 -49 -98 -20 -29 20 -31 93 -4 117 21 19 82
23 99 6 8 -8 13 -8 18 1 26 42 -94 57 -140 17z"/>
<path d="M2456 1189 c-34 -41 -36 -106 -3 -144 30 -35 93 -44 136 -19 27 16
31 24 31 61 l0 43 -45 0 c-33 0 -45 -4 -45 -15 0 -10 10 -15 30 -15 22 0 30
-5 30 -18 0 -48 -75 -59 -109 -16 -27 34 -27 74 1 103 19 21 27 23 75 17 29
-3 53 -3 53 0 0 17 -40 33 -82 34 -40 0 -50 -4 -72 -31z"/>
</g>
</svg>
